<svg width="349" height="349" viewBox="0 0 349 349" fill="none" xmlns="http://www.w3.org/2000/svg">
<g clip-path="url(#clip0)">
<path d="M340.273 275.083L286.518 221.322C275.811 210.658 258.08 210.982 247 222.066L219.918 249.142C218.207 248.199 216.436 247.214 214.574 246.169C197.472 236.693 174.065 223.705 149.434 199.056C124.73 174.355 111.73 150.912 102.225 133.799C101.222 131.986 100.261 130.238 99.312 128.578L117.488 110.429L126.424 101.482C137.521 90.382 137.827 72.656 127.145 61.961L73.39 8.19396C62.708 -2.48604 44.969 -2.16204 33.872 8.93796L18.722 24.175L19.136 24.586C14.056 31.068 9.81098 38.544 6.65198 46.606C3.73998 54.28 1.92698 61.603 1.09798 68.941C-6.00002 127.785 20.89 181.564 93.866 254.541C194.741 355.409 276.033 347.789 279.54 347.417C287.178 346.504 294.498 344.679 301.937 341.79C309.929 338.668 317.4 334.429 323.878 329.36L324.209 329.654L339.557 314.625C350.631 303.527 350.95 285.795 340.273 275.083Z" fill="#FFC702"/>
</g>
<defs>
<clipPath id="clip0">
<rect width="348.077" height="348.077" fill="white"/>
</clipPath>
</defs>
</svg>
